<svg width="96" height="96" viewBox="0 0 96 96" fill="none" xmlns="http://www.w3.org/2000/svg">
<circle cx="48" cy="48" r="48" fill="#E6F8FF"/>
<path opacity="0.4" d="M63.8667 36.5601L63.4933 36.3467L59.7867 34.2134L52.1334 29.7867C49.7867 28.4267 46.2133 28.4267 43.8667 29.7867L36.2133 34.2134L32.5067 36.3734L32.0267 36.6401C27.2534 39.8401 26.9333 40.4267 26.9333 45.5734V57.8667C26.9333 63.0134 27.2534 63.6001 32.1333 66.8801L43.8667 73.6534C45.04 74.3467 46.5067 74.6667 48 74.6667C49.4667 74.6667 50.96 74.3467 52.1334 73.6534L63.9733 66.8001C68.7467 63.6001 69.0667 63.0134 69.0667 57.8667V45.5734C69.0667 40.4267 68.7467 39.8401 63.8667 36.5601Z" fill="#03A3DD"/>
<path d="M32.5066 36.3734L36.2133 34.2134L43.5199 30L43.8666 29.7867C46.2133 28.4267 49.7866 28.4267 52.1333 29.7867L52.4799 30L59.7866 34.2134L63.4933 36.3467V30.64C63.4933 24.64 60.1866 21.3334 54.1866 21.3334H41.7866C35.7866 21.3334 32.5066 24.64 32.5066 30.64V36.3734Z" fill="#03A3DD"/>
<path d="M55.5733 51.5733L53.92 53.6C53.6533 53.8933 53.4666 54.48 53.4933 54.88L53.6533 57.4933C53.76 59.0933 52.6133 59.92 51.12 59.3333L48.6933 58.3733C48.32 58.24 47.68 58.24 47.3066 58.3733L44.88 59.3333C43.3866 59.92 42.24 59.0933 42.3466 57.4933L42.5066 54.88C42.5333 54.48 42.3466 53.8933 42.08 53.6L40.4266 51.5733C39.3866 50.3467 39.84 48.9867 41.3866 48.5867L43.92 47.9467C44.32 47.84 44.8 47.4667 45.0133 47.12L46.4266 44.9333C47.3066 43.5733 48.6933 43.5733 49.5733 44.9333L50.9866 47.12C51.2 47.4667 51.68 47.84 52.08 47.9467L54.6133 48.5867C56.16 48.9867 56.6133 50.3467 55.5733 51.5733Z" fill="#03A3DD"/>
</svg>
