<svg width="96" height="96" viewBox="0 0 96 96" fill="none" xmlns="http://www.w3.org/2000/svg">
<circle cx="48" cy="48" r="48" fill="#E6F8FF"/>
<path opacity="0.4" d="M69.2533 42.6666V64C69.2533 72 66.5867 74.6666 58.5867 74.6666H37.2533C29.2533 74.6666 26.5867 72 26.5867 64V42.6666H69.2533Z" fill="#03A3DD"/>
<path d="M73.3334 34.6667V37.3334C73.3334 40.2667 71.9201 42.6667 68.0001 42.6667H28.0001C23.9201 42.6667 22.6667 40.2667 22.6667 37.3334V34.6667C22.6667 31.7334 23.9201 29.3334 28.0001 29.3334H68.0001C71.9201 29.3334 73.3334 31.7334 73.3334 34.6667Z" fill="#03A3DD"/>
<path opacity="0.4" d="M47.04 29.3333H32.32C31.4133 28.3466 31.44 26.8266 32.4 25.8666L36.1867 22.08C37.1733 21.0933 38.8 21.0933 39.7867 22.08L47.04 29.3333Z" fill="#03A3DD"/>
<path opacity="0.4" d="M63.6534 29.3333H48.9333L56.1867 22.08C57.1733 21.0933 58.8 21.0933 59.7867 22.08L63.5733 25.8666C64.5333 26.8266 64.56 28.3466 63.6534 29.3333Z" fill="#03A3DD"/>
<path opacity="0.6" d="M39.8401 42.6666V56.3733C39.8401 58.5066 42.1868 59.76 43.9734 58.6133L46.4801 56.96C47.3868 56.3733 48.5334 56.3733 49.4134 56.96L51.7868 58.56C53.5468 59.7333 55.9201 58.48 55.9201 56.3466V42.6666H39.8401Z" fill="#03A3DD"/>
</svg>
