<svg width="96" height="96" viewBox="0 0 96 96" fill="none" xmlns="http://www.w3.org/2000/svg">
<circle cx="48" cy="48" r="48" fill="#E6F8FF"/>
<path opacity="0.4" d="M38.8267 24.9066V63.1199C37.92 63.1466 37.0134 63.3599 36.3467 63.7599L30.08 67.3333C25.7067 69.8399 22.1067 67.7599 22.1067 62.6933V36.7466C22.1067 35.0666 23.3067 32.9866 24.8 32.1333L36.3467 25.5199C37.0134 25.1466 37.92 24.9333 38.8267 24.9066Z" fill="#03A3DD"/>
<path d="M57.9467 32.88V71.0933C57.0133 71.12 56.1067 70.96 55.3867 70.6133L41.3867 63.6C40.6667 63.2533 39.76 63.0933 38.8267 63.12V24.9067C39.76 24.88 40.6667 25.04 41.3867 25.3867L55.3867 32.4C56.1067 32.7467 57.0133 32.9067 57.9467 32.88Z" fill="#03A3DD"/>
<path opacity="0.4" d="M74.6668 33.3067V59.2533C74.6668 60.9333 73.4668 63.0133 71.9734 63.8667L60.4268 70.48C59.7601 70.8533 58.8534 71.0667 57.9468 71.0933V32.88C58.8534 32.8533 59.7601 32.64 60.4268 32.24L66.6934 28.6667C71.0668 26.16 74.6668 28.24 74.6668 33.3067Z" fill="#03A3DD"/>
</svg>
